<?xml version="1.0" encoding="UTF-8" standalone="no"?>
<!DOCTYPE svg PUBLIC "-//W3C//DTD SVG 1.1//EN"
 "http://www.w3.org/Graphics/SVG/1.1/DTD/svg11.dtd">
<!-- Generated by graphviz version 2.40.1 (20161225.0304)
 -->
<!-- Title: %3 Pages: 1 -->
<svg width="728pt" height="461pt"
 viewBox="0.00 0.00 727.50 461.00" xmlns="http://www.w3.org/2000/svg" xmlns:xlink="http://www.w3.org/1999/xlink">
<g id="graph0" class="graph" transform="scale(1 1) rotate(0) translate(4 457)">
<title>%3</title>
<polygon fill="#ffffff" stroke="transparent" points="-4,4 -4,-457 723.5,-457 723.5,4 -4,4"/>
<!-- v1 -->
<g id="node1" class="node">
<title>v1</title>
<ellipse fill="#000000" stroke="#000000" cx="132.5" cy="-380" rx="0" ry="0"/>
</g>
<!-- v2 -->
<g id="node2" class="node">
<title>v2</title>
<ellipse fill="#000000" stroke="#000000" cx="178.5" cy="-380" rx="0" ry="0"/>
</g>
<!-- v1&#45;&gt;v2 -->
<g id="edge1" class="edge">
<title>v1&#45;&gt;v2</title>
<path fill="none" stroke="#000000" d="M132.8594,-380C147.9541,-380 163.0487,-380 178.1434,-380"/>
</g>
<!-- staging -->
<g id="node6" class="node">
<title>staging</title>
<polygon fill="none" stroke="#000000" points="131.5,-343 128.5,-347 107.5,-347 104.5,-343 75.5,-343 75.5,-307 131.5,-307 131.5,-343"/>
<text text-anchor="middle" x="103.5" y="-321.3" font-family="Times,serif" font-size="14.00" fill="#000000">staging</text>
</g>
<!-- v1&#45;&gt;staging -->
<g id="edge5" class="edge">
<title>v1&#45;&gt;staging</title>
<path fill="none" stroke="#000000" d="M132.4168,-379.8422C131.3936,-377.9016 121.1371,-358.4496 113.1264,-343.2569"/>
</g>
<!-- v3 -->
<g id="node3" class="node">
<title>v3</title>
<ellipse fill="#000000" stroke="#000000" cx="380.5" cy="-380" rx="0" ry="0"/>
</g>
<!-- v2&#45;&gt;v3 -->
<g id="edge2" class="edge">
<title>v2&#45;&gt;v3</title>
<path fill="none" stroke="#000000" d="M178.8945,-380C245.9651,-380 313.0357,-380 380.1062,-380"/>
</g>
<!-- topics -->
<g id="node7" class="node">
<title>topics</title>
<polygon fill="none" stroke="#000000" points="205.5,-343 202.5,-347 181.5,-347 178.5,-343 151.5,-343 151.5,-307 205.5,-307 205.5,-343"/>
<text text-anchor="middle" x="178.5" y="-321.3" font-family="Times,serif" font-size="14.00" fill="#000000">topics</text>
</g>
<!-- v2&#45;&gt;topics -->
<g id="edge6" class="edge">
<title>v2&#45;&gt;topics</title>
<path fill="none" stroke="#000000" d="M178.5,-379.8422C178.5,-377.9016 178.5,-358.4496 178.5,-343.2569"/>
</g>
<!-- v4 -->
<g id="node4" class="node">
<title>v4</title>
<ellipse fill="#000000" stroke="#000000" cx="462.5" cy="-380" rx="0" ry="0"/>
</g>
<!-- v3&#45;&gt;v4 -->
<g id="edge3" class="edge">
<title>v3&#45;&gt;v4</title>
<path fill="none" stroke="#000000" d="M380.8203,-380C407.9405,-380 435.0607,-380 462.1809,-380"/>
</g>
<!-- messages -->
<g id="node8" class="node">
<title>messages</title>
<polygon fill="none" stroke="#000000" points="414.5,-343 411.5,-347 390.5,-347 387.5,-343 346.5,-343 346.5,-307 414.5,-307 414.5,-343"/>
<text text-anchor="middle" x="380.5" y="-321.3" font-family="Times,serif" font-size="14.00" fill="#000000">messages</text>
</g>
<!-- v3&#45;&gt;messages -->
<g id="edge7" class="edge">
<title>v3&#45;&gt;messages</title>
<path fill="none" stroke="#000000" d="M380.5,-379.8422C380.5,-377.9016 380.5,-358.4496 380.5,-343.2569"/>
</g>
<!-- update -->
<g id="node9" class="node">
<title>update</title>
<polygon fill="none" stroke="#000000" points="536.5,-343 533.5,-347 512.5,-347 509.5,-343 482.5,-343 482.5,-307 536.5,-307 536.5,-343"/>
<text text-anchor="middle" x="509.5" y="-321.3" font-family="Times,serif" font-size="14.00" fill="#000000">update</text>
</g>
<!-- v4&#45;&gt;update -->
<g id="edge8" class="edge">
<title>v4&#45;&gt;update</title>
<path fill="none" stroke="#000000" d="M462.6348,-379.8422C464.2932,-377.9016 480.9158,-358.4496 493.8986,-343.2569"/>
</g>
<!-- fsq_dir -->
<g id="node5" class="node">
<title>fsq_dir</title>
<polygon fill="none" stroke="#000000" points="160,-453 157,-457 136,-457 133,-453 105,-453 105,-417 160,-417 160,-453"/>
<text text-anchor="middle" x="132.5" y="-431.3" font-family="Times,serif" font-size="14.00" fill="#000000">fsq_dir</text>
</g>
<!-- fsq_dir&#45;&gt;v1 -->
<g id="edge4" class="edge">
<title>fsq_dir&#45;&gt;v1</title>
<path fill="none" stroke="#000000" d="M132.5,-416.9909C132.5,-401.4519 132.5,-381.3046 132.5,-380.0606"/>
</g>
<!-- sv1 -->
<g id="node28" class="node">
<title>sv1</title>
<ellipse fill="#000000" stroke="#000000" cx="59.5" cy="-270" rx="0" ry="0"/>
</g>
<!-- staging&#45;&gt;sv1 -->
<g id="edge26" class="edge">
<title>staging&#45;&gt;sv1</title>
<path fill="none" stroke="#000000" d="M89.0928,-306.9909C76.6615,-291.4519 60.5437,-271.3046 59.5485,-270.0606"/>
</g>
<!-- tv1 -->
<g id="node10" class="node">
<title>tv1</title>
<ellipse fill="#000000" stroke="#000000" cx="178.5" cy="-270" rx="0" ry="0"/>
</g>
<!-- topics&#45;&gt;tv1 -->
<g id="edge11" class="edge">
<title>topics&#45;&gt;tv1</title>
<path fill="none" stroke="#000000" d="M178.5,-306.9909C178.5,-291.4519 178.5,-271.3046 178.5,-270.0606"/>
</g>
<!-- mv1 -->
<g id="node17" class="node">
<title>mv1</title>
<ellipse fill="#000000" stroke="#000000" cx="380.5" cy="-270" rx="0" ry="0"/>
</g>
<!-- messages&#45;&gt;mv1 -->
<g id="edge18" class="edge">
<title>messages&#45;&gt;mv1</title>
<path fill="none" stroke="#000000" d="M380.5,-306.9909C380.5,-291.4519 380.5,-271.3046 380.5,-270.0606"/>
</g>
<!-- uv1 -->
<g id="node24" class="node">
<title>uv1</title>
<ellipse fill="#000000" stroke="#000000" cx="542.5" cy="-270" rx="0" ry="0"/>
</g>
<!-- update&#45;&gt;uv1 -->
<g id="edge23" class="edge">
<title>update&#45;&gt;uv1</title>
<path fill="none" stroke="#000000" d="M520.3054,-306.9909C529.6289,-291.4519 541.7172,-271.3046 542.4636,-270.0606"/>
</g>
<!-- tv2 -->
<g id="node11" class="node">
<title>tv2</title>
<ellipse fill="#000000" stroke="#000000" cx="218.5" cy="-270" rx="0" ry="0"/>
</g>
<!-- tv1&#45;&gt;tv2 -->
<g id="edge9" class="edge">
<title>tv1&#45;&gt;tv2</title>
<path fill="none" stroke="#000000" d="M178.8125,-270C191.9383,-270 205.0641,-270 218.1899,-270"/>
</g>
<!-- t00 -->
<g id="node13" class="node">
<title>t00</title>
<polygon fill="none" stroke="#000000" points="173.5,-233 170.5,-237 149.5,-237 146.5,-233 119.5,-233 119.5,-197 173.5,-197 173.5,-233"/>
<text text-anchor="middle" x="146.5" y="-211.3" font-family="Times,serif" font-size="14.00" fill="#000000">00</text>
</g>
<!-- tv1&#45;&gt;t00 -->
<g id="edge12" class="edge">
<title>tv1&#45;&gt;t00</title>
<path fill="none" stroke="#000000" d="M178.4082,-269.8422C177.2791,-267.9016 165.9616,-248.4496 157.1222,-233.2569"/>
</g>
<!-- tv3 -->
<g id="node12" class="node">
<title>tv3</title>
<ellipse fill="#000000" stroke="#000000" cx="272.5" cy="-270" rx="0" ry="0"/>
</g>
<!-- tv2&#45;&gt;tv3 -->
<g id="edge10" class="edge">
<title>tv2&#45;&gt;tv3</title>
<path fill="none" stroke="#000000" d="M218.9219,-270C236.6417,-270 254.3616,-270 272.0814,-270"/>
</g>
<!-- t01 -->
<g id="node14" class="node">
<title>t01</title>
<polygon fill="none" stroke="#000000" points="245.5,-233 242.5,-237 221.5,-237 218.5,-233 191.5,-233 191.5,-197 245.5,-197 245.5,-233"/>
<text text-anchor="middle" x="218.5" y="-211.3" font-family="Times,serif" font-size="14.00" fill="#000000">01</text>
</g>
<!-- tv2&#45;&gt;t01 -->
<g id="edge13" class="edge">
<title>tv2&#45;&gt;t01</title>
<path fill="none" stroke="#000000" d="M218.5,-269.8422C218.5,-267.9016 218.5,-248.4496 218.5,-233.2569"/>
</g>
<!-- t02 -->
<g id="node15" class="node">
<title>t02</title>
<polygon fill="none" stroke="#000000" points="317.5,-233 314.5,-237 293.5,-237 290.5,-233 263.5,-233 263.5,-197 317.5,-197 317.5,-233"/>
<text text-anchor="middle" x="290.5" y="-211.3" font-family="Times,serif" font-size="14.00" fill="#000000">..</text>
</g>
<!-- tv3&#45;&gt;t02 -->
<g id="edge14" class="edge">
<title>tv3&#45;&gt;t02</title>
<path fill="none" stroke="#000000" d="M272.5516,-269.8422C273.1868,-267.9016 279.5529,-248.4496 284.525,-233.2569"/>
</g>
<!-- tf -->
<g id="node16" class="node">
<title>tf</title>
<polygon fill="none" stroke="#696969" points="239,-160 180,-160 180,-124 245,-124 245,-154 239,-160"/>
<polyline fill="none" stroke="#696969" points="239,-160 239,-154 "/>
<polyline fill="none" stroke="#696969" points="245,-154 239,-154 "/>
<text text-anchor="middle" x="212.5" y="-138.3" font-family="Times,serif" font-size="14.00" fill="#696969">topic file</text>
</g>
<!-- t01&#45;&gt;tf -->
<g id="edge15" class="edge">
<title>t01&#45;&gt;tf</title>
<path fill="none" stroke="#000000" d="M217.0169,-196.9551C216.0938,-185.7241 214.9107,-171.3298 213.9869,-160.0904"/>
</g>
<!-- qv2 -->
<g id="node31" class="node">
<title>qv2</title>
<ellipse fill="#000000" stroke="#000000" cx="211.5" cy="-73" rx="0" ry="0"/>
</g>
<!-- tf&#45;&gt;qv2 -->
<g id="edge33" class="edge">
<title>tf&#45;&gt;qv2</title>
<path fill="none" stroke="#696969" d="M212.0911,-113.7855C211.825,-95.4235 211.5232,-74.603 211.5013,-73.0879"/>
<polygon fill="#696969" stroke="#696969" points="208.5926,-113.9229 212.2373,-123.8711 215.5919,-113.8214 208.5926,-113.9229"/>
<text text-anchor="middle" x="292.5" y="-94.8" font-family="Times,serif" font-size="14.00" fill="#696969">2. Optional: Write long topic</text>
</g>
<!-- mv2 -->
<g id="node18" class="node">
<title>mv2</title>
<ellipse fill="#000000" stroke="#000000" cx="434.5" cy="-270" rx="0" ry="0"/>
</g>
<!-- mv1&#45;&gt;mv2 -->
<g id="edge16" class="edge">
<title>mv1&#45;&gt;mv2</title>
<path fill="none" stroke="#000000" d="M380.9219,-270C398.6417,-270 416.3616,-270 434.0814,-270"/>
</g>
<!-- m00 -->
<g id="node20" class="node">
<title>m00</title>
<polygon fill="none" stroke="#000000" points="389.5,-233 386.5,-237 365.5,-237 362.5,-233 335.5,-233 335.5,-197 389.5,-197 389.5,-233"/>
<text text-anchor="middle" x="362.5" y="-211.3" font-family="Times,serif" font-size="14.00" fill="#000000">00</text>
</g>
<!-- mv1&#45;&gt;m00 -->
<g id="edge19" class="edge">
<title>mv1&#45;&gt;m00</title>
<path fill="none" stroke="#000000" d="M380.4484,-269.8422C379.8132,-267.9016 373.4471,-248.4496 368.475,-233.2569"/>
</g>
<!-- mv3 -->
<g id="node19" class="node">
<title>mv3</title>
<ellipse fill="#000000" stroke="#000000" cx="488.5" cy="-270" rx="0" ry="0"/>
</g>
<!-- mv2&#45;&gt;mv3 -->
<g id="edge17" class="edge">
<title>mv2&#45;&gt;mv3</title>
<path fill="none" stroke="#000000" d="M434.9219,-270C452.6417,-270 470.3616,-270 488.0814,-270"/>
</g>
<!-- m01 -->
<g id="node21" class="node">
<title>m01</title>
<polygon fill="none" stroke="#000000" points="461.5,-233 458.5,-237 437.5,-237 434.5,-233 407.5,-233 407.5,-197 461.5,-197 461.5,-233"/>
<text text-anchor="middle" x="434.5" y="-211.3" font-family="Times,serif" font-size="14.00" fill="#000000">01</text>
</g>
<!-- mv2&#45;&gt;m01 -->
<g id="edge20" class="edge">
<title>mv2&#45;&gt;m01</title>
<path fill="none" stroke="#000000" d="M434.5,-269.8422C434.5,-267.9016 434.5,-248.4496 434.5,-233.2569"/>
</g>
<!-- m02 -->
<g id="node22" class="node">
<title>m02</title>
<polygon fill="none" stroke="#000000" points="533.5,-233 530.5,-237 509.5,-237 506.5,-233 479.5,-233 479.5,-197 533.5,-197 533.5,-233"/>
<text text-anchor="middle" x="506.5" y="-211.3" font-family="Times,serif" font-size="14.00" fill="#000000">..</text>
</g>
<!-- mv3&#45;&gt;m02 -->
<g id="edge21" class="edge">
<title>mv3&#45;&gt;m02</title>
<path fill="none" stroke="#000000" d="M488.5516,-269.8422C489.1868,-267.9016 495.5529,-248.4496 500.525,-233.2569"/>
</g>
<!-- mf -->
<g id="node23" class="node">
<title>mf</title>
<polygon fill="none" stroke="#000000" points="430,-160 373,-160 373,-124 436,-124 436,-154 430,-160"/>
<polyline fill="none" stroke="#000000" points="430,-160 430,-154 "/>
<polyline fill="none" stroke="#000000" points="436,-154 430,-154 "/>
<text text-anchor="middle" x="404.5" y="-138.3" font-family="Times,serif" font-size="14.00" fill="#000000">message</text>
</g>
<!-- m01&#45;&gt;mf -->
<g id="edge22" class="edge">
<title>m01&#45;&gt;mf</title>
<path fill="none" stroke="#000000" d="M427.0843,-196.9551C422.4688,-185.7241 416.5533,-171.3298 411.9344,-160.0904"/>
</g>
<!-- qv3 -->
<g id="node32" class="node">
<title>qv3</title>
<ellipse fill="#000000" stroke="#000000" cx="394.5" cy="-73" rx="0" ry="0"/>
</g>
<!-- mf&#45;&gt;qv3 -->
<g id="edge34" class="edge">
<title>mf&#45;&gt;qv3</title>
<path fill="none" stroke="#000000" d="M396.8556,-113.863C396.3222,-111.2193 395.8558,-108.5685 395.5,-106 393.5497,-91.9196 394.4396,-74.1502 394.4972,-73.0534"/>
<polygon fill="#000000" stroke="#000000" points="393.4971,-114.8758 399.1528,-123.8348 400.3185,-113.3042 393.4971,-114.8758"/>
<text text-anchor="middle" x="483" y="-94.8" font-family="Times,serif" font-size="14.00" fill="#000000">3. Move from staging to bucket</text>
</g>
<!-- UPDATE -->
<g id="node26" class="node">
<title>UPDATE</title>
<polygon fill="none" stroke="#000000" points="617.5,-233 553.5,-233 553.5,-197 623.5,-197 623.5,-227 617.5,-233"/>
<polyline fill="none" stroke="#000000" points="617.5,-233 617.5,-227 "/>
<polyline fill="none" stroke="#000000" points="623.5,-227 617.5,-227 "/>
<text text-anchor="middle" x="588.5" y="-211.3" font-family="Times,serif" font-size="14.00" fill="#000000">UPDATE</text>
</g>
<!-- uv1&#45;&gt;UPDATE -->
<g id="edge24" class="edge">
<title>uv1&#45;&gt;UPDATE</title>
<path fill="none" stroke="#000000" d="M542.632,-269.8422C544.255,-267.9016 560.524,-248.4496 573.2306,-233.2569"/>
</g>
<!-- uv2 -->
<g id="node25" class="node">
<title>uv2</title>
<ellipse fill="#000000" stroke="#000000" cx="591.5" cy="-142" rx="0" ry="0"/>
</g>
<!-- qv4 -->
<g id="node33" class="node">
<title>qv4</title>
<ellipse fill="#000000" stroke="#000000" cx="511.5" cy="-73" rx="0" ry="0"/>
</g>
<!-- uv2&#45;&gt;qv4 -->
<g id="edge35" class="edge">
<title>uv2&#45;&gt;qv4</title>
<path fill="none" stroke="#000000" d="M591.4912,-141.9005C591.3059,-139.861 588.066,-106.9799 570.5,-91 560.6771,-82.064 514.516,-73.5489 511.6405,-73.0255"/>
<text text-anchor="middle" x="650" y="-94.8" font-family="Times,serif" font-size="14.00" fill="#000000">4. Write to UPDATE file</text>
</g>
<!-- UPDATE&#45;&gt;uv2 -->
<g id="edge25" class="edge">
<title>UPDATE&#45;&gt;uv2</title>
<path fill="none" stroke="#000000" d="M589.6604,-186.763C590.4736,-166.9766 591.4272,-143.7711 591.496,-142.0963"/>
<polygon fill="#000000" stroke="#000000" points="586.1552,-186.8197 589.2416,-196.9551 593.1493,-187.1072 586.1552,-186.8197"/>
</g>
<!-- smsg -->
<g id="node27" class="node">
<title>smsg</title>
<polygon fill="none" stroke="#000000" stroke-dasharray="5,2" points="95,-233 0,-233 0,-197 101,-197 101,-227 95,-233"/>
<polyline fill="none" stroke="#000000" stroke-dasharray="5,2" points="95,-233 95,-227 "/>
<polyline fill="none" stroke="#000000" stroke-dasharray="5,2" points="101,-227 95,-227 "/>
<text text-anchor="middle" x="50.5" y="-211.3" font-family="Times,serif" font-size="14.00" fill="#000000">staged message</text>
</g>
<!-- sv2 -->
<g id="node29" class="node">
<title>sv2</title>
<ellipse fill="#000000" stroke="#000000" cx="55.5" cy="-142" rx="0" ry="0"/>
</g>
<!-- smsg&#45;&gt;sv2 -->
<g id="edge28" class="edge">
<title>smsg&#45;&gt;sv2</title>
<path fill="none" stroke="#000000" stroke-dasharray="5,2" d="M52.434,-186.763C53.7893,-166.9766 55.3787,-143.7711 55.4934,-142.0963"/>
<polygon fill="#000000" stroke="#000000" points="48.9276,-186.7392 51.736,-196.9551 55.9112,-187.2176 48.9276,-186.7392"/>
</g>
<!-- sv1&#45;&gt;smsg -->
<g id="edge27" class="edge">
<title>sv1&#45;&gt;smsg</title>
<path fill="none" stroke="#000000" d="M59.4742,-269.8422C59.1566,-267.9016 55.9736,-248.4496 53.4875,-233.2569"/>
</g>
<!-- qv1 -->
<g id="node30" class="node">
<title>qv1</title>
<ellipse fill="#000000" stroke="#000000" cx="117.5" cy="-73" rx="0" ry="0"/>
</g>
<!-- sv2&#45;&gt;qv1 -->
<g id="edge32" class="edge">
<title>sv2&#45;&gt;qv1</title>
<path fill="none" stroke="#000000" stroke-dasharray="5,2" d="M55.5163,-141.9038C55.8551,-139.9315 61.5418,-108.1071 78.5,-91 91.5199,-77.8659 115.9143,-73.2865 117.4263,-73.0132"/>
<text text-anchor="middle" x="143.5" y="-94.8" font-family="Times,serif" font-size="14.00" fill="#000000">1. Write to staging area</text>
</g>
<!-- qv1&#45;&gt;qv2 -->
<g id="edge29" class="edge">
<title>qv1&#45;&gt;qv2</title>
<path fill="none" stroke="#000000" d="M117.8672,-73C148.9562,-73 180.0452,-73 211.1342,-73"/>
</g>
<!-- qlobber&#45;fsq -->
<g id="node34" class="node">
<title>qlobber&#45;fsq</title>
<polygon fill="none" stroke="#000000" points="157,-36 78,-36 78,0 157,0 157,-36"/>
<text text-anchor="middle" x="117.5" y="-14.3" font-family="Times,serif" font-size="14.00" fill="#000000">qlobber&#45;fsq</text>
</g>
<!-- qv1&#45;&gt;qlobber&#45;fsq -->
<g id="edge36" class="edge">
<title>qv1&#45;&gt;qlobber&#45;fsq</title>
<path fill="none" stroke="#000000" d="M117.5,-72.8422C117.5,-70.9016 117.5,-51.4496 117.5,-36.2569"/>
</g>
<!-- qv2&#45;&gt;qv3 -->
<g id="edge30" class="edge">
<title>qv2&#45;&gt;qv3</title>
<path fill="none" stroke="#000000" d="M211.8574,-73C272.6194,-73 333.3813,-73 394.1433,-73"/>
</g>
<!-- qv3&#45;&gt;qv4 -->
<g id="edge31" class="edge">
<title>qv3&#45;&gt;qv4</title>
<path fill="none" stroke="#000000" d="M394.957,-73C433.6529,-73 472.3488,-73 511.0448,-73"/>
</g>
</g>
</svg>
