<?xml version="1.0" encoding="UTF-8" standalone="no"?>
<!DOCTYPE svg PUBLIC "-//W3C//DTD SVG 1.1//EN"
 "http://www.w3.org/Graphics/SVG/1.1/DTD/svg11.dtd">
<!-- Generated by graphviz version 2.43.0 (0)
 -->
<!-- Title: %3 Pages: 1 -->
<svg width="723pt" height="461pt"
 viewBox="0.00 0.00 722.50 461.00" xmlns="http://www.w3.org/2000/svg" xmlns:xlink="http://www.w3.org/1999/xlink">
<g id="graph0" class="graph" transform="scale(1 1) rotate(0) translate(4 457)">
<title>%3</title>
<polygon fill="white" stroke="transparent" points="-4,4 -4,-457 718.5,-457 718.5,4 -4,4"/>
<!-- v1 -->
<g id="node1" class="node">
<title>v1</title>
<ellipse fill="black" stroke="black" cx="132.5" cy="-380" rx="0" ry="0"/>
</g>
<!-- v2 -->
<g id="node2" class="node">
<title>v2</title>
<ellipse fill="black" stroke="black" cx="178.5" cy="-380" rx="0" ry="0"/>
</g>
<!-- v1&#45;&gt;v2 -->
<g id="edge1" class="edge">
<title>v1&#45;&gt;v2</title>
<path fill="none" stroke="black" d="M132.86,-380C147.95,-380 163.05,-380 178.14,-380"/>
</g>
<!-- staging -->
<g id="node6" class="node">
<title>staging</title>
<polygon fill="none" stroke="black" points="131.5,-343 128.5,-347 107.5,-347 104.5,-343 75.5,-343 75.5,-307 131.5,-307 131.5,-343"/>
<text text-anchor="middle" x="103.5" y="-321.3" font-family="Times,serif" font-size="14.00">staging</text>
</g>
<!-- v1&#45;&gt;staging -->
<g id="edge5" class="edge">
<title>v1&#45;&gt;staging</title>
<path fill="none" stroke="black" d="M132.42,-378.85C131.38,-376.95 120.87,-357.74 112.82,-343.02"/>
</g>
<!-- v3 -->
<g id="node3" class="node">
<title>v3</title>
<ellipse fill="black" stroke="black" cx="380.5" cy="-380" rx="0" ry="0"/>
</g>
<!-- v2&#45;&gt;v3 -->
<g id="edge2" class="edge">
<title>v2&#45;&gt;v3</title>
<path fill="none" stroke="black" d="M178.89,-380C245.97,-380 313.04,-380 380.11,-380"/>
</g>
<!-- topics -->
<g id="node7" class="node">
<title>topics</title>
<polygon fill="none" stroke="black" points="205.5,-343 202.5,-347 181.5,-347 178.5,-343 151.5,-343 151.5,-307 205.5,-307 205.5,-343"/>
<text text-anchor="middle" x="178.5" y="-321.3" font-family="Times,serif" font-size="14.00">topics</text>
</g>
<!-- v2&#45;&gt;topics -->
<g id="edge6" class="edge">
<title>v2&#45;&gt;topics</title>
<path fill="none" stroke="black" d="M178.5,-378.85C178.5,-376.95 178.5,-357.74 178.5,-343.02"/>
</g>
<!-- v4 -->
<g id="node4" class="node">
<title>v4</title>
<ellipse fill="black" stroke="black" cx="462.5" cy="-380" rx="0" ry="0"/>
</g>
<!-- v3&#45;&gt;v4 -->
<g id="edge3" class="edge">
<title>v3&#45;&gt;v4</title>
<path fill="none" stroke="black" d="M380.82,-380C407.94,-380 435.06,-380 462.18,-380"/>
</g>
<!-- messages -->
<g id="node8" class="node">
<title>messages</title>
<polygon fill="none" stroke="black" points="414.5,-343 411.5,-347 390.5,-347 387.5,-343 346.5,-343 346.5,-307 414.5,-307 414.5,-343"/>
<text text-anchor="middle" x="380.5" y="-321.3" font-family="Times,serif" font-size="14.00">messages</text>
</g>
<!-- v3&#45;&gt;messages -->
<g id="edge7" class="edge">
<title>v3&#45;&gt;messages</title>
<path fill="none" stroke="black" d="M380.5,-378.85C380.5,-376.95 380.5,-357.74 380.5,-343.02"/>
</g>
<!-- update -->
<g id="node9" class="node">
<title>update</title>
<polygon fill="none" stroke="black" points="535.5,-343 532.5,-347 511.5,-347 508.5,-343 481.5,-343 481.5,-307 535.5,-307 535.5,-343"/>
<text text-anchor="middle" x="508.5" y="-321.3" font-family="Times,serif" font-size="14.00">update</text>
</g>
<!-- v4&#45;&gt;update -->
<g id="edge8" class="edge">
<title>v4&#45;&gt;update</title>
<path fill="none" stroke="black" d="M462.63,-378.85C464.28,-376.95 480.95,-357.74 493.72,-343.02"/>
</g>
<!-- fsq_dir -->
<g id="node5" class="node">
<title>fsq_dir</title>
<polygon fill="none" stroke="black" points="160,-453 157,-457 136,-457 133,-453 105,-453 105,-417 160,-417 160,-453"/>
<text text-anchor="middle" x="132.5" y="-431.3" font-family="Times,serif" font-size="14.00">fsq_dir</text>
</g>
<!-- fsq_dir&#45;&gt;v1 -->
<g id="edge4" class="edge">
<title>fsq_dir&#45;&gt;v1</title>
<path fill="none" stroke="black" d="M132.5,-416.94C132.5,-401.93 132.5,-382.27 132.5,-381.06"/>
</g>
<!-- sv1 -->
<g id="node28" class="node">
<title>sv1</title>
<ellipse fill="black" stroke="black" cx="59.5" cy="-270" rx="0" ry="0"/>
</g>
<!-- staging&#45;&gt;sv1 -->
<g id="edge26" class="edge">
<title>staging&#45;&gt;sv1</title>
<path fill="none" stroke="black" d="M89.34,-306.94C76.88,-291.93 60.56,-272.27 59.55,-271.06"/>
</g>
<!-- tv1 -->
<g id="node10" class="node">
<title>tv1</title>
<ellipse fill="black" stroke="black" cx="178.5" cy="-270" rx="0" ry="0"/>
</g>
<!-- topics&#45;&gt;tv1 -->
<g id="edge11" class="edge">
<title>topics&#45;&gt;tv1</title>
<path fill="none" stroke="black" d="M178.5,-306.94C178.5,-291.93 178.5,-272.27 178.5,-271.06"/>
</g>
<!-- mv1 -->
<g id="node17" class="node">
<title>mv1</title>
<ellipse fill="black" stroke="black" cx="380.5" cy="-270" rx="0" ry="0"/>
</g>
<!-- messages&#45;&gt;mv1 -->
<g id="edge18" class="edge">
<title>messages&#45;&gt;mv1</title>
<path fill="none" stroke="black" d="M380.5,-306.94C380.5,-291.93 380.5,-272.27 380.5,-271.06"/>
</g>
<!-- uv1 -->
<g id="node24" class="node">
<title>uv1</title>
<ellipse fill="black" stroke="black" cx="541.5" cy="-270" rx="0" ry="0"/>
</g>
<!-- update&#45;&gt;uv1 -->
<g id="edge23" class="edge">
<title>update&#45;&gt;uv1</title>
<path fill="none" stroke="black" d="M519.12,-306.94C528.47,-291.93 540.71,-272.27 541.46,-271.06"/>
</g>
<!-- tv2 -->
<g id="node11" class="node">
<title>tv2</title>
<ellipse fill="black" stroke="black" cx="218.5" cy="-270" rx="0" ry="0"/>
</g>
<!-- tv1&#45;&gt;tv2 -->
<g id="edge9" class="edge">
<title>tv1&#45;&gt;tv2</title>
<path fill="none" stroke="black" d="M178.81,-270C191.94,-270 205.06,-270 218.19,-270"/>
</g>
<!-- t00 -->
<g id="node13" class="node">
<title>t00</title>
<polygon fill="none" stroke="black" points="173.5,-233 170.5,-237 149.5,-237 146.5,-233 119.5,-233 119.5,-197 173.5,-197 173.5,-233"/>
<text text-anchor="middle" x="146.5" y="-211.3" font-family="Times,serif" font-size="14.00">00</text>
</g>
<!-- tv1&#45;&gt;t00 -->
<g id="edge12" class="edge">
<title>tv1&#45;&gt;t00</title>
<path fill="none" stroke="black" d="M178.41,-268.85C177.26,-266.95 165.67,-247.74 156.78,-233.02"/>
</g>
<!-- tv3 -->
<g id="node12" class="node">
<title>tv3</title>
<ellipse fill="black" stroke="black" cx="272.5" cy="-270" rx="0" ry="0"/>
</g>
<!-- tv2&#45;&gt;tv3 -->
<g id="edge10" class="edge">
<title>tv2&#45;&gt;tv3</title>
<path fill="none" stroke="black" d="M218.92,-270C236.64,-270 254.36,-270 272.08,-270"/>
</g>
<!-- t01 -->
<g id="node14" class="node">
<title>t01</title>
<polygon fill="none" stroke="black" points="245.5,-233 242.5,-237 221.5,-237 218.5,-233 191.5,-233 191.5,-197 245.5,-197 245.5,-233"/>
<text text-anchor="middle" x="218.5" y="-211.3" font-family="Times,serif" font-size="14.00">01</text>
</g>
<!-- tv2&#45;&gt;t01 -->
<g id="edge13" class="edge">
<title>tv2&#45;&gt;t01</title>
<path fill="none" stroke="black" d="M218.5,-268.85C218.5,-266.95 218.5,-247.74 218.5,-233.02"/>
</g>
<!-- t02 -->
<g id="node15" class="node">
<title>t02</title>
<polygon fill="none" stroke="black" points="317.5,-233 314.5,-237 293.5,-237 290.5,-233 263.5,-233 263.5,-197 317.5,-197 317.5,-233"/>
<text text-anchor="middle" x="290.5" y="-211.3" font-family="Times,serif" font-size="14.00">..</text>
</g>
<!-- tv3&#45;&gt;t02 -->
<g id="edge14" class="edge">
<title>tv3&#45;&gt;t02</title>
<path fill="none" stroke="black" d="M272.55,-268.85C273.2,-266.95 279.72,-247.74 284.72,-233.02"/>
</g>
<!-- tf -->
<g id="node16" class="node">
<title>tf</title>
<polygon fill="none" stroke="dimgrey" points="239,-160 180,-160 180,-124 245,-124 245,-154 239,-160"/>
<polyline fill="none" stroke="dimgrey" points="239,-160 239,-154 "/>
<polyline fill="none" stroke="dimgrey" points="245,-154 239,-154 "/>
<text text-anchor="middle" x="212.5" y="-138.3" font-family="Times,serif" font-size="14.00" fill="dimgrey">topic file</text>
</g>
<!-- t01&#45;&gt;tf -->
<g id="edge15" class="edge">
<title>t01&#45;&gt;tf</title>
<path fill="none" stroke="black" d="M217.05,-196.81C216.1,-185.65 214.88,-171.16 213.94,-160.03"/>
</g>
<!-- qv2 -->
<g id="node31" class="node">
<title>qv2</title>
<ellipse fill="black" stroke="black" cx="211.5" cy="-73" rx="0" ry="0"/>
</g>
<!-- tf&#45;&gt;qv2 -->
<g id="edge33" class="edge">
<title>tf&#45;&gt;qv2</title>
<path fill="none" stroke="dimgrey" d="M212.09,-113.68C211.83,-95.84 211.52,-75.57 211.5,-74.09"/>
<polygon fill="dimgrey" stroke="dimgrey" points="208.59,-113.8 212.24,-123.75 215.59,-113.69 208.59,-113.8"/>
<text text-anchor="middle" x="291.5" y="-94.8" font-family="Times,serif" font-size="14.00" fill="dimgrey">2. Optional: Write long topic</text>
</g>
<!-- mv2 -->
<g id="node18" class="node">
<title>mv2</title>
<ellipse fill="black" stroke="black" cx="434.5" cy="-270" rx="0" ry="0"/>
</g>
<!-- mv1&#45;&gt;mv2 -->
<g id="edge16" class="edge">
<title>mv1&#45;&gt;mv2</title>
<path fill="none" stroke="black" d="M380.92,-270C398.64,-270 416.36,-270 434.08,-270"/>
</g>
<!-- m00 -->
<g id="node20" class="node">
<title>m00</title>
<polygon fill="none" stroke="black" points="389.5,-233 386.5,-237 365.5,-237 362.5,-233 335.5,-233 335.5,-197 389.5,-197 389.5,-233"/>
<text text-anchor="middle" x="362.5" y="-211.3" font-family="Times,serif" font-size="14.00">00</text>
</g>
<!-- mv1&#45;&gt;m00 -->
<g id="edge19" class="edge">
<title>mv1&#45;&gt;m00</title>
<path fill="none" stroke="black" d="M380.45,-268.85C379.8,-266.95 373.28,-247.74 368.28,-233.02"/>
</g>
<!-- mv3 -->
<g id="node19" class="node">
<title>mv3</title>
<ellipse fill="black" stroke="black" cx="488.5" cy="-270" rx="0" ry="0"/>
</g>
<!-- mv2&#45;&gt;mv3 -->
<g id="edge17" class="edge">
<title>mv2&#45;&gt;mv3</title>
<path fill="none" stroke="black" d="M434.92,-270C452.64,-270 470.36,-270 488.08,-270"/>
</g>
<!-- m01 -->
<g id="node21" class="node">
<title>m01</title>
<polygon fill="none" stroke="black" points="461.5,-233 458.5,-237 437.5,-237 434.5,-233 407.5,-233 407.5,-197 461.5,-197 461.5,-233"/>
<text text-anchor="middle" x="434.5" y="-211.3" font-family="Times,serif" font-size="14.00">01</text>
</g>
<!-- mv2&#45;&gt;m01 -->
<g id="edge20" class="edge">
<title>mv2&#45;&gt;m01</title>
<path fill="none" stroke="black" d="M434.5,-268.85C434.5,-266.95 434.5,-247.74 434.5,-233.02"/>
</g>
<!-- m02 -->
<g id="node22" class="node">
<title>m02</title>
<polygon fill="none" stroke="black" points="533.5,-233 530.5,-237 509.5,-237 506.5,-233 479.5,-233 479.5,-197 533.5,-197 533.5,-233"/>
<text text-anchor="middle" x="506.5" y="-211.3" font-family="Times,serif" font-size="14.00">..</text>
</g>
<!-- mv3&#45;&gt;m02 -->
<g id="edge21" class="edge">
<title>mv3&#45;&gt;m02</title>
<path fill="none" stroke="black" d="M488.55,-268.85C489.2,-266.95 495.72,-247.74 500.72,-233.02"/>
</g>
<!-- mf -->
<g id="node23" class="node">
<title>mf</title>
<polygon fill="none" stroke="black" points="428,-160 371,-160 371,-124 434,-124 434,-154 428,-160"/>
<polyline fill="none" stroke="black" points="428,-160 428,-154 "/>
<polyline fill="none" stroke="black" points="434,-154 428,-154 "/>
<text text-anchor="middle" x="402.5" y="-138.3" font-family="Times,serif" font-size="14.00">message</text>
</g>
<!-- m01&#45;&gt;mf -->
<g id="edge22" class="edge">
<title>m01&#45;&gt;mf</title>
<path fill="none" stroke="black" d="M426.75,-196.81C421.72,-185.65 415.19,-171.16 410.17,-160.03"/>
</g>
<!-- qv3 -->
<g id="node32" class="node">
<title>qv3</title>
<ellipse fill="black" stroke="black" cx="392.5" cy="-73" rx="0" ry="0"/>
</g>
<!-- mf&#45;&gt;qv3 -->
<g id="edge34" class="edge">
<title>mf&#45;&gt;qv3</title>
<path fill="none" stroke="black" d="M394.89,-113.82C394.34,-111.19 393.86,-108.55 393.5,-106 391.56,-92.35 392.44,-75.12 392.5,-74.05"/>
<polygon fill="black" stroke="black" points="391.52,-114.79 397.25,-123.71 398.33,-113.17 391.52,-114.79"/>
<text text-anchor="middle" x="481" y="-94.8" font-family="Times,serif" font-size="14.00">3. Move from staging to bucket</text>
</g>
<!-- UPDATE -->
<g id="node26" class="node">
<title>UPDATE</title>
<polygon fill="none" stroke="black" points="614.5,-233 552.5,-233 552.5,-197 620.5,-197 620.5,-227 614.5,-233"/>
<polyline fill="none" stroke="black" points="614.5,-233 614.5,-227 "/>
<polyline fill="none" stroke="black" points="620.5,-227 614.5,-227 "/>
<text text-anchor="middle" x="586.5" y="-211.3" font-family="Times,serif" font-size="14.00">UPDATE</text>
</g>
<!-- uv1&#45;&gt;UPDATE -->
<g id="edge24" class="edge">
<title>uv1&#45;&gt;UPDATE</title>
<path fill="none" stroke="black" d="M541.63,-268.85C543.24,-266.95 559.55,-247.74 572.05,-233.02"/>
</g>
<!-- uv2 -->
<g id="node25" class="node">
<title>uv2</title>
<ellipse fill="black" stroke="black" cx="589.5" cy="-142" rx="0" ry="0"/>
</g>
<!-- qv4 -->
<g id="node33" class="node">
<title>qv4</title>
<ellipse fill="black" stroke="black" cx="509.5" cy="-73" rx="0" ry="0"/>
</g>
<!-- uv2&#45;&gt;qv4 -->
<g id="edge35" class="edge">
<title>uv2&#45;&gt;qv4</title>
<path fill="none" stroke="black" d="M589.49,-140.9C589.3,-138.89 585.95,-106.52 568.5,-91 548.74,-73.43 511.9,-73.95 509.61,-74"/>
<text text-anchor="middle" x="646.5" y="-94.8" font-family="Times,serif" font-size="14.00">4. Write to UPDATE file</text>
</g>
<!-- UPDATE&#45;&gt;uv2 -->
<g id="edge25" class="edge">
<title>UPDATE&#45;&gt;uv2</title>
<path fill="none" stroke="black" d="M587.66,-186.62C588.47,-167.36 589.43,-144.73 589.5,-143.09"/>
<polygon fill="black" stroke="black" points="584.15,-186.67 587.23,-196.81 591.15,-186.97 584.15,-186.67"/>
</g>
<!-- smsg -->
<g id="node27" class="node">
<title>smsg</title>
<polygon fill="none" stroke="black" stroke-dasharray="5,2" points="95,-233 0,-233 0,-197 101,-197 101,-227 95,-233"/>
<polyline fill="none" stroke="black" stroke-dasharray="5,2" points="95,-233 95,-227 "/>
<polyline fill="none" stroke="black" stroke-dasharray="5,2" points="101,-227 95,-227 "/>
<text text-anchor="middle" x="50.5" y="-211.3" font-family="Times,serif" font-size="14.00">staged message</text>
</g>
<!-- sv2 -->
<g id="node29" class="node">
<title>sv2</title>
<ellipse fill="black" stroke="black" cx="56.5" cy="-142" rx="0" ry="0"/>
</g>
<!-- smsg&#45;&gt;sv2 -->
<g id="edge28" class="edge">
<title>smsg&#45;&gt;sv2</title>
<path fill="none" stroke="black" stroke-dasharray="5,2" d="M52.81,-186.62C54.44,-167.36 56.35,-144.73 56.49,-143.09"/>
<polygon fill="black" stroke="black" points="49.31,-186.55 51.95,-196.81 56.28,-187.14 49.31,-186.55"/>
</g>
<!-- sv1&#45;&gt;smsg -->
<g id="edge27" class="edge">
<title>sv1&#45;&gt;smsg</title>
<path fill="none" stroke="black" d="M59.47,-268.85C59.15,-266.95 55.89,-247.74 53.39,-233.02"/>
</g>
<!-- qv1 -->
<g id="node30" class="node">
<title>qv1</title>
<ellipse fill="black" stroke="black" cx="118.5" cy="-73" rx="0" ry="0"/>
</g>
<!-- sv2&#45;&gt;qv1 -->
<g id="edge32" class="edge">
<title>sv2&#45;&gt;qv1</title>
<path fill="none" stroke="black" stroke-dasharray="5,2" d="M56.52,-140.91C56.91,-138.96 63.39,-107.66 80.5,-91 93.34,-78.5 116.96,-74.26 118.43,-74.01"/>
<text text-anchor="middle" x="144.5" y="-94.8" font-family="Times,serif" font-size="14.00">1. Write to staging area</text>
</g>
<!-- qv1&#45;&gt;qv2 -->
<g id="edge29" class="edge">
<title>qv1&#45;&gt;qv2</title>
<path fill="none" stroke="black" d="M118.86,-73C149.62,-73 180.38,-73 211.14,-73"/>
</g>
<!-- qlobber&#45;fsq -->
<g id="node34" class="node">
<title>qlobber&#45;fsq</title>
<polygon fill="none" stroke="black" points="158,-36 79,-36 79,0 158,0 158,-36"/>
<text text-anchor="middle" x="118.5" y="-14.3" font-family="Times,serif" font-size="14.00">qlobber&#45;fsq</text>
</g>
<!-- qv1&#45;&gt;qlobber&#45;fsq -->
<g id="edge36" class="edge">
<title>qv1&#45;&gt;qlobber&#45;fsq</title>
<path fill="none" stroke="black" d="M118.5,-71.85C118.5,-69.95 118.5,-50.74 118.5,-36.02"/>
</g>
<!-- qv2&#45;&gt;qv3 -->
<g id="edge30" class="edge">
<title>qv2&#45;&gt;qv3</title>
<path fill="none" stroke="black" d="M211.85,-73C271.95,-73 332.05,-73 392.15,-73"/>
</g>
<!-- qv3&#45;&gt;qv4 -->
<g id="edge31" class="edge">
<title>qv3&#45;&gt;qv4</title>
<path fill="none" stroke="black" d="M392.96,-73C431.65,-73 470.35,-73 509.04,-73"/>
</g>
</g>
</svg>
