<?xml version="1.0" encoding="UTF-8" standalone="no"?>
<!DOCTYPE svg PUBLIC "-//W3C//DTD SVG 1.1//EN"
 "http://www.w3.org/Graphics/SVG/1.1/DTD/svg11.dtd">
<!-- Generated by graphviz version 2.26.3 (20100126.1600)
 -->
<!-- Title: _anonymous_0 Pages: 1 -->
<svg width="878pt" height="470pt"
 viewBox="0.00 0.00 878.00 470.00" xmlns="http://www.w3.org/2000/svg" xmlns:xlink="http://www.w3.org/1999/xlink">
<g id="graph1" class="graph" transform="scale(1 1) rotate(0) translate(4 466)">
<title>_anonymous_0</title>
<polygon fill="white" stroke="white" points="-4,5 -4,-466 875,-466 875,5 -4,5"/>
<!-- v1 -->
<g id="node2" class="node"><title>v1</title>
<ellipse fill="black" stroke="black" cx="63" cy="-388" rx="0.0108" ry="0.0108"/>
</g>
<!-- v2 -->
<g id="node3" class="node"><title>v2</title>
<ellipse fill="black" stroke="black" cx="175" cy="-388" rx="0.0108" ry="0.0108"/>
</g>
<!-- v1&#45;&gt;v2 -->
<g id="edge3" class="edge"><title>v1&#45;&gt;v2</title>
<path fill="none" stroke="black" d="M63.4375,-388C100.48,-388 137.522,-388 174.564,-388"/>
</g>
<!-- staging -->
<g id="node12" class="node"><title>staging</title>
<polygon fill="none" stroke="black" points="96,-350 93,-354 72,-354 69,-350 30,-350 30,-314 96,-314 96,-350"/>
<text text-anchor="middle" x="63" y="-328.4" font-family="Times Roman,serif" font-size="14.00">staging</text>
</g>
<!-- v1&#45;&gt;staging -->
<g id="edge11" class="edge"><title>v1&#45;&gt;staging</title>
<path fill="none" stroke="black" d="M63,-387.839C63,-385.851 63,-365.8 63,-350.288"/>
</g>
<!-- v3 -->
<g id="node4" class="node"><title>v3</title>
<ellipse fill="black" stroke="black" cx="397" cy="-388" rx="0.0108" ry="0.0108"/>
</g>
<!-- v2&#45;&gt;v3 -->
<g id="edge5" class="edge"><title>v2&#45;&gt;v3</title>
<path fill="none" stroke="black" d="M175.434,-388C249.145,-388 322.856,-388 396.567,-388"/>
</g>
<!-- topics -->
<g id="node14" class="node"><title>topics</title>
<polygon fill="none" stroke="black" points="203,-350 200,-354 179,-354 176,-350 147,-350 147,-314 203,-314 203,-350"/>
<text text-anchor="middle" x="175" y="-328.4" font-family="Times Roman,serif" font-size="14.00">topics</text>
</g>
<!-- v2&#45;&gt;topics -->
<g id="edge13" class="edge"><title>v2&#45;&gt;topics</title>
<path fill="none" stroke="black" d="M175,-387.839C175,-385.851 175,-365.8 175,-350.288"/>
</g>
<!-- v4 -->
<g id="node5" class="node"><title>v4</title>
<ellipse fill="black" stroke="black" cx="708" cy="-388" rx="0.0108" ry="0.0108"/>
</g>
<!-- v3&#45;&gt;v4 -->
<g id="edge7" class="edge"><title>v3&#45;&gt;v4</title>
<path fill="none" stroke="black" d="M397.304,-388C500.768,-388 604.232,-388 707.697,-388"/>
</g>
<!-- messages -->
<g id="node16" class="node"><title>messages</title>
<polygon fill="none" stroke="black" points="438,-350 435,-354 414,-354 411,-350 356,-350 356,-314 438,-314 438,-350"/>
<text text-anchor="middle" x="397" y="-328.4" font-family="Times Roman,serif" font-size="14.00">messages</text>
</g>
<!-- v3&#45;&gt;messages -->
<g id="edge15" class="edge"><title>v3&#45;&gt;messages</title>
<path fill="none" stroke="black" d="M397,-387.839C397,-385.851 397,-365.8 397,-350.288"/>
</g>
<!-- update -->
<g id="node18" class="node"><title>update</title>
<polygon fill="none" stroke="black" points="740,-350 737,-354 716,-354 713,-350 676,-350 676,-314 740,-314 740,-350"/>
<text text-anchor="middle" x="708" y="-328.4" font-family="Times Roman,serif" font-size="14.00">update</text>
</g>
<!-- v4&#45;&gt;update -->
<g id="edge17" class="edge"><title>v4&#45;&gt;update</title>
<path fill="none" stroke="black" d="M708,-387.839C708,-385.851 708,-365.8 708,-350.288"/>
</g>
<!-- fsq_dir -->
<g id="node9" class="node"><title>fsq_dir</title>
<polygon fill="none" stroke="black" points="94,-462 91,-466 70,-466 67,-462 32,-462 32,-426 94,-426 94,-462"/>
<text text-anchor="middle" x="63" y="-440.4" font-family="Times Roman,serif" font-size="14.00">fsq_dir</text>
</g>
<!-- fsq_dir&#45;&gt;v1 -->
<g id="edge9" class="edge"><title>fsq_dir&#45;&gt;v1</title>
<path fill="none" stroke="black" d="M63,-425.973C63,-410.114 63,-389.345 63,-388.062"/>
</g>
<!-- sv1 -->
<g id="node56" class="node"><title>sv1</title>
<ellipse fill="black" stroke="black" cx="63" cy="-276" rx="0.0108" ry="0.0108"/>
</g>
<!-- staging&#45;&gt;sv1 -->
<g id="edge55" class="edge"><title>staging&#45;&gt;sv1</title>
<path fill="none" stroke="black" d="M63,-313.973C63,-298.114 63,-277.345 63,-276.062"/>
</g>
<!-- tv1 -->
<g id="node20" class="node"><title>tv1</title>
<ellipse fill="black" stroke="black" cx="175" cy="-276" rx="0.0108" ry="0.0108"/>
</g>
<!-- topics&#45;&gt;tv1 -->
<g id="edge24" class="edge"><title>topics&#45;&gt;tv1</title>
<path fill="none" stroke="black" d="M175,-313.973C175,-298.114 175,-277.345 175,-276.062"/>
</g>
<!-- mv1 -->
<g id="node35" class="node"><title>mv1</title>
<ellipse fill="black" stroke="black" cx="397" cy="-276" rx="0.0108" ry="0.0108"/>
</g>
<!-- messages&#45;&gt;mv1 -->
<g id="edge39" class="edge"><title>messages&#45;&gt;mv1</title>
<path fill="none" stroke="black" d="M397,-313.973C397,-298.114 397,-277.345 397,-276.062"/>
</g>
<!-- uv1 -->
<g id="node49" class="node"><title>uv1</title>
<ellipse fill="black" stroke="black" cx="708" cy="-276" rx="0.0108" ry="0.0108"/>
</g>
<!-- update&#45;&gt;uv1 -->
<g id="edge49" class="edge"><title>update&#45;&gt;uv1</title>
<path fill="none" stroke="black" d="M708,-313.973C708,-298.114 708,-277.345 708,-276.062"/>
</g>
<!-- tv2 -->
<g id="node21" class="node"><title>tv2</title>
<ellipse fill="black" stroke="black" cx="251" cy="-276" rx="0.0108" ry="0.0108"/>
</g>
<!-- tv1&#45;&gt;tv2 -->
<g id="edge20" class="edge"><title>tv1&#45;&gt;tv2</title>
<path fill="none" stroke="black" d="M175.297,-276C200.433,-276 225.568,-276 250.704,-276"/>
</g>
<!-- t00 -->
<g id="node26" class="node"><title>t00</title>
<polygon fill="none" stroke="black" points="202,-238 199,-242 178,-242 175,-238 148,-238 148,-202 202,-202 202,-238"/>
<text text-anchor="middle" x="175" y="-216.4" font-family="Times Roman,serif" font-size="14.00">00</text>
</g>
<!-- tv1&#45;&gt;t00 -->
<g id="edge26" class="edge"><title>tv1&#45;&gt;t00</title>
<path fill="none" stroke="black" d="M175,-275.839C175,-273.851 175,-253.8 175,-238.288"/>
</g>
<!-- tv3 -->
<g id="node22" class="node"><title>tv3</title>
<ellipse fill="black" stroke="black" cx="324" cy="-276" rx="0.0108" ry="0.0108"/>
</g>
<!-- tv2&#45;&gt;tv3 -->
<g id="edge22" class="edge"><title>tv2&#45;&gt;tv3</title>
<path fill="none" stroke="black" d="M251.285,-276C275.429,-276 299.572,-276 323.716,-276"/>
</g>
<!-- t01 -->
<g id="node27" class="node"><title>t01</title>
<polygon fill="none" stroke="black" points="278,-238 275,-242 254,-242 251,-238 224,-238 224,-202 278,-202 278,-238"/>
<text text-anchor="middle" x="251" y="-216.4" font-family="Times Roman,serif" font-size="14.00">01</text>
</g>
<!-- tv2&#45;&gt;t01 -->
<g id="edge28" class="edge"><title>tv2&#45;&gt;t01</title>
<path fill="none" stroke="black" d="M251,-275.839C251,-273.851 251,-253.8 251,-238.288"/>
</g>
<!-- t02 -->
<g id="node28" class="node"><title>t02</title>
<polygon fill="none" stroke="black" points="351,-238 348,-242 327,-242 324,-238 297,-238 297,-202 351,-202 351,-238"/>
<text text-anchor="middle" x="324" y="-216.4" font-family="Times Roman,serif" font-size="14.00">..</text>
</g>
<!-- tv3&#45;&gt;t02 -->
<g id="edge30" class="edge"><title>tv3&#45;&gt;t02</title>
<path fill="none" stroke="black" d="M324,-275.839C324,-273.851 324,-253.8 324,-238.288"/>
</g>
<!-- tf -->
<g id="node32" class="node"><title>tf</title>
<polygon fill="none" stroke="dimgrey" points="282,-164 214,-164 214,-128 288,-128 288,-158 282,-164"/>
<polyline fill="none" stroke="dimgrey" points="282,-164 282,-158 "/>
<polyline fill="none" stroke="dimgrey" points="288,-158 282,-158 "/>
<text text-anchor="middle" x="251" y="-142.4" font-family="Times Roman,serif" font-size="14.00" fill="dimgrey">topic file</text>
</g>
<!-- t01&#45;&gt;tf -->
<g id="edge32" class="edge"><title>t01&#45;&gt;tf</title>
<path fill="none" stroke="black" d="M251,-201.708C251,-190.238 251,-175.512 251,-164.082"/>
</g>
<!-- qv2 -->
<g id="node63" class="node"><title>qv2</title>
<ellipse fill="black" stroke="black" cx="251" cy="-74" rx="0.0108" ry="0.0108"/>
</g>
<!-- tf&#45;&gt;qv2 -->
<g id="edge70" class="edge"><title>tf&#45;&gt;qv2</title>
<path fill="none" stroke="dimgrey" d="M251,-117.798C251,-98.3563 251,-75.727 251,-74.0939"/>
<polygon fill="dimgrey" stroke="dimgrey" points="247.5,-117.831 251,-127.831 254.5,-117.831 247.5,-117.831"/>
<text text-anchor="middle" x="349" y="-97.4" font-family="Times Roman,serif" font-size="14.00" fill="dimgrey">2. Optional: Write long topic</text>
</g>
<!-- mv2 -->
<g id="node36" class="node"><title>mv2</title>
<ellipse fill="black" stroke="black" cx="470" cy="-276" rx="0.0108" ry="0.0108"/>
</g>
<!-- mv1&#45;&gt;mv2 -->
<g id="edge35" class="edge"><title>mv1&#45;&gt;mv2</title>
<path fill="none" stroke="black" d="M397.285,-276C421.429,-276 445.572,-276 469.716,-276"/>
</g>
<!-- m00 -->
<g id="node41" class="node"><title>m00</title>
<polygon fill="none" stroke="black" points="424,-238 421,-242 400,-242 397,-238 370,-238 370,-202 424,-202 424,-238"/>
<text text-anchor="middle" x="397" y="-216.4" font-family="Times Roman,serif" font-size="14.00">00</text>
</g>
<!-- mv1&#45;&gt;m00 -->
<g id="edge41" class="edge"><title>mv1&#45;&gt;m00</title>
<path fill="none" stroke="black" d="M397,-275.839C397,-273.851 397,-253.8 397,-238.288"/>
</g>
<!-- mv3 -->
<g id="node37" class="node"><title>mv3</title>
<ellipse fill="black" stroke="black" cx="584" cy="-276" rx="0.0108" ry="0.0108"/>
</g>
<!-- mv2&#45;&gt;mv3 -->
<g id="edge37" class="edge"><title>mv2&#45;&gt;mv3</title>
<path fill="none" stroke="black" d="M470.445,-276C508.149,-276 545.853,-276 583.556,-276"/>
</g>
<!-- m01 -->
<g id="node42" class="node"><title>m01</title>
<polygon fill="none" stroke="black" points="497,-238 494,-242 473,-242 470,-238 443,-238 443,-202 497,-202 497,-238"/>
<text text-anchor="middle" x="470" y="-216.4" font-family="Times Roman,serif" font-size="14.00">01</text>
</g>
<!-- mv2&#45;&gt;m01 -->
<g id="edge43" class="edge"><title>mv2&#45;&gt;m01</title>
<path fill="none" stroke="black" d="M470,-275.839C470,-273.851 470,-253.8 470,-238.288"/>
</g>
<!-- m02 -->
<g id="node43" class="node"><title>m02</title>
<polygon fill="none" stroke="black" points="611,-238 608,-242 587,-242 584,-238 557,-238 557,-202 611,-202 611,-238"/>
<text text-anchor="middle" x="584" y="-216.4" font-family="Times Roman,serif" font-size="14.00">..</text>
</g>
<!-- mv3&#45;&gt;m02 -->
<g id="edge45" class="edge"><title>mv3&#45;&gt;m02</title>
<path fill="none" stroke="black" d="M584,-275.839C584,-273.851 584,-253.8 584,-238.288"/>
</g>
<!-- mf -->
<g id="node47" class="node"><title>mf</title>
<polygon fill="none" stroke="black" points="502,-164 432,-164 432,-128 508,-128 508,-158 502,-164"/>
<polyline fill="none" stroke="black" points="502,-164 502,-158 "/>
<polyline fill="none" stroke="black" points="508,-158 502,-158 "/>
<text text-anchor="middle" x="470" y="-142.4" font-family="Times Roman,serif" font-size="14.00">message</text>
</g>
<!-- m01&#45;&gt;mf -->
<g id="edge47" class="edge"><title>m01&#45;&gt;mf</title>
<path fill="none" stroke="black" d="M470,-201.708C470,-190.238 470,-175.512 470,-164.082"/>
</g>
<!-- qv3 -->
<g id="node64" class="node"><title>qv3</title>
<ellipse fill="black" stroke="black" cx="470" cy="-74" rx="0.0108" ry="0.0108"/>
</g>
<!-- mf&#45;&gt;qv3 -->
<g id="edge72" class="edge"><title>mf&#45;&gt;qv3</title>
<path fill="none" stroke="black" d="M470,-117.798C470,-98.3563 470,-75.727 470,-74.0939"/>
<polygon fill="black" stroke="black" points="466.5,-117.831 470,-127.831 473.5,-117.831 466.5,-117.831"/>
<text text-anchor="middle" x="577.5" y="-97.4" font-family="Times Roman,serif" font-size="14.00">3. Move from staging to bucket</text>
</g>
<!-- UPDATE -->
<g id="node53" class="node"><title>UPDATE</title>
<polygon fill="none" stroke="black" points="739,-238 671,-238 671,-202 745,-202 745,-232 739,-238"/>
<polyline fill="none" stroke="black" points="739,-238 739,-232 "/>
<polyline fill="none" stroke="black" points="745,-232 739,-232 "/>
<text text-anchor="middle" x="708" y="-216.4" font-family="Times Roman,serif" font-size="14.00">UPDATE</text>
</g>
<!-- uv1&#45;&gt;UPDATE -->
<g id="edge51" class="edge"><title>uv1&#45;&gt;UPDATE</title>
<path fill="none" stroke="black" d="M708,-275.839C708,-273.851 708,-253.8 708,-238.288"/>
</g>
<!-- uv2 -->
<g id="node50" class="node"><title>uv2</title>
<ellipse fill="black" stroke="black" cx="708" cy="-146" rx="0.0108" ry="0.0108"/>
</g>
<!-- qv4 -->
<g id="node65" class="node"><title>qv4</title>
<ellipse fill="black" stroke="black" cx="708" cy="-74" rx="0.0108" ry="0.0108"/>
</g>
<!-- uv2&#45;&gt;qv4 -->
<g id="edge74" class="edge"><title>uv2&#45;&gt;qv4</title>
<path fill="none" stroke="black" d="M708,-145.948C708,-143.802 708,-76.1637 708,-74.0506"/>
<text text-anchor="middle" x="789" y="-97.4" font-family="Times Roman,serif" font-size="14.00">4. Write to UPDATE file</text>
</g>
<!-- UPDATE&#45;&gt;uv2 -->
<g id="edge53" class="edge"><title>UPDATE&#45;&gt;uv2</title>
<path fill="none" stroke="black" d="M708,-191.653C708,-171.536 708,-147.803 708,-146.098"/>
<polygon fill="black" stroke="black" points="704.5,-191.708 708,-201.708 711.5,-191.708 704.5,-191.708"/>
</g>
<!-- smsg -->
<g id="node55" class="node"><title>smsg</title>
<polygon fill="none" stroke="black" stroke-dasharray="5,2" points="120,-238 4.9738e-14,-238 0,-202 126,-202 126,-232 120,-238"/>
<polyline fill="none" stroke="black" stroke-dasharray="5,2" points="120,-238 120,-232 "/>
<polyline fill="none" stroke="black" stroke-dasharray="5,2" points="126,-232 120,-232 "/>
<text text-anchor="middle" x="63" y="-216.4" font-family="Times Roman,serif" font-size="14.00">staged message</text>
</g>
<!-- sv2 -->
<g id="node57" class="node"><title>sv2</title>
<ellipse fill="black" stroke="black" cx="63" cy="-146" rx="0.0108" ry="0.0108"/>
</g>
<!-- smsg&#45;&gt;sv2 -->
<g id="edge59" class="edge"><title>smsg&#45;&gt;sv2</title>
<path fill="none" stroke="black" stroke-dasharray="5,2" d="M63,-191.653C63,-171.536 63,-147.803 63,-146.098"/>
<polygon fill="black" stroke="black" points="59.5001,-191.708 63,-201.708 66.5001,-191.708 59.5001,-191.708"/>
</g>
<!-- sv1&#45;&gt;smsg -->
<g id="edge57" class="edge"><title>sv1&#45;&gt;smsg</title>
<path fill="none" stroke="black" d="M63,-275.839C63,-273.851 63,-253.8 63,-238.288"/>
</g>
<!-- qv1 -->
<g id="node62" class="node"><title>qv1</title>
<ellipse fill="black" stroke="black" cx="63" cy="-74" rx="0.0108" ry="0.0108"/>
</g>
<!-- sv2&#45;&gt;qv1 -->
<g id="edge68" class="edge"><title>sv2&#45;&gt;qv1</title>
<path fill="none" stroke="black" stroke-dasharray="5,2" d="M63,-145.948C63,-143.802 63,-76.1637 63,-74.0506"/>
<text text-anchor="middle" x="145.5" y="-97.4" font-family="Times Roman,serif" font-size="14.00">1. Write to staging area</text>
</g>
<!-- qv1&#45;&gt;qv2 -->
<g id="edge62" class="edge"><title>qv1&#45;&gt;qv2</title>
<path fill="none" stroke="black" d="M63.3672,-74C125.789,-74 188.211,-74 250.634,-74"/>
</g>
<!-- qlobber&#45;fsq -->
<g id="node74" class="node"><title>qlobber&#45;fsq</title>
<polygon fill="none" stroke="black" points="108,-36 18,-36 18,-1.77636e-14 108,-3.55271e-15 108,-36"/>
<text text-anchor="middle" x="63" y="-14.4" font-family="Times Roman,serif" font-size="14.00">qlobber&#45;fsq</text>
</g>
<!-- qv1&#45;&gt;qlobber&#45;fsq -->
<g id="edge76" class="edge"><title>qv1&#45;&gt;qlobber&#45;fsq</title>
<path fill="none" stroke="black" d="M63,-73.8394C63,-71.8506 63,-51.7998 63,-36.2881"/>
</g>
<!-- qv2&#45;&gt;qv3 -->
<g id="edge64" class="edge"><title>qv2&#45;&gt;qv3</title>
<path fill="none" stroke="black" d="M251.428,-74C324.143,-74 396.858,-74 469.573,-74"/>
</g>
<!-- qv3&#45;&gt;qv4 -->
<g id="edge66" class="edge"><title>qv3&#45;&gt;qv4</title>
<path fill="none" stroke="black" d="M470.465,-74C549.489,-74 628.512,-74 707.536,-74"/>
</g>
</g>
</svg>
