<?xml version="1.0" encoding="UTF-8" standalone="no"?>
<!DOCTYPE svg PUBLIC "-//W3C//DTD SVG 1.1//EN"
 "http://www.w3.org/Graphics/SVG/1.1/DTD/svg11.dtd">
<!-- Generated by graphviz version 2.36.0 (20140111.2315)
 -->
<!-- Title: %3 Pages: 1 -->
<svg width="779pt" height="468pt"
 viewBox="0.00 0.00 779.00 468.00" xmlns="http://www.w3.org/2000/svg" xmlns:xlink="http://www.w3.org/1999/xlink">
<g id="graph0" class="graph" transform="scale(1 1) rotate(0) translate(4 464)">
<title>%3</title>
<polygon fill="white" stroke="none" points="-4,4 -4,-464 775,-464 775,4 -4,4"/>
<!-- v1 -->
<g id="node1" class="node"><title>v1</title>
<ellipse fill="black" stroke="black" cx="50" cy="-386" rx="0" ry="0"/>
</g>
<!-- v2 -->
<g id="node2" class="node"><title>v2</title>
<ellipse fill="black" stroke="black" cx="146" cy="-386" rx="0" ry="0"/>
</g>
<!-- v1&#45;&gt;v2 -->
<g id="edge1" class="edge"><title>v1&#45;&gt;v2</title>
<path fill="none" stroke="black" d="M50.375,-386C82.1255,-386 113.876,-386 145.626,-386"/>
</g>
<!-- staging -->
<g id="node6" class="node"><title>staging</title>
<polygon fill="none" stroke="black" points="77.5,-348 74.5,-352 53.5,-352 50.5,-348 22.5,-348 22.5,-312 77.5,-312 77.5,-348"/>
<text text-anchor="middle" x="50" y="-326.3" font-family="Times,serif" font-size="14.00">staging</text>
</g>
<!-- v1&#45;&gt;staging -->
<g id="edge5" class="edge"><title>v1&#45;&gt;staging</title>
<path fill="none" stroke="black" d="M50,-384.845C50,-382.903 50,-363.091 50,-348.058"/>
</g>
<!-- v3 -->
<g id="node3" class="node"><title>v3</title>
<ellipse fill="black" stroke="black" cx="362" cy="-386" rx="0" ry="0"/>
</g>
<!-- v2&#45;&gt;v3 -->
<g id="edge2" class="edge"><title>v2&#45;&gt;v3</title>
<path fill="none" stroke="black" d="M146.422,-386C218.141,-386 289.86,-386 361.579,-386"/>
</g>
<!-- topics -->
<g id="node7" class="node"><title>topics</title>
<polygon fill="none" stroke="black" points="173,-348 170,-352 149,-352 146,-348 119,-348 119,-312 173,-312 173,-348"/>
<text text-anchor="middle" x="146" y="-326.3" font-family="Times,serif" font-size="14.00">topics</text>
</g>
<!-- v2&#45;&gt;topics -->
<g id="edge6" class="edge"><title>v2&#45;&gt;topics</title>
<path fill="none" stroke="black" d="M146,-384.845C146,-382.903 146,-363.091 146,-348.058"/>
</g>
<!-- v4 -->
<g id="node4" class="node"><title>v4</title>
<ellipse fill="black" stroke="black" cx="632" cy="-386" rx="0" ry="0"/>
</g>
<!-- v3&#45;&gt;v4 -->
<g id="edge3" class="edge"><title>v3&#45;&gt;v4</title>
<path fill="none" stroke="black" d="M362.264,-386C452.088,-386 541.912,-386 631.737,-386"/>
</g>
<!-- messages -->
<g id="node8" class="node"><title>messages</title>
<polygon fill="none" stroke="black" points="396,-348 393,-352 372,-352 369,-348 328,-348 328,-312 396,-312 396,-348"/>
<text text-anchor="middle" x="362" y="-326.3" font-family="Times,serif" font-size="14.00">messages</text>
</g>
<!-- v3&#45;&gt;messages -->
<g id="edge7" class="edge"><title>v3&#45;&gt;messages</title>
<path fill="none" stroke="black" d="M362,-384.845C362,-382.903 362,-363.091 362,-348.058"/>
</g>
<!-- update -->
<g id="node9" class="node"><title>update</title>
<polygon fill="none" stroke="black" points="659,-348 656,-352 635,-352 632,-348 605,-348 605,-312 659,-312 659,-348"/>
<text text-anchor="middle" x="632" y="-326.3" font-family="Times,serif" font-size="14.00">update</text>
</g>
<!-- v4&#45;&gt;update -->
<g id="edge8" class="edge"><title>v4&#45;&gt;update</title>
<path fill="none" stroke="black" d="M632,-384.845C632,-382.903 632,-363.091 632,-348.058"/>
</g>
<!-- fsq_dir -->
<g id="node5" class="node"><title>fsq_dir</title>
<polygon fill="none" stroke="black" points="77.25,-460 74.25,-464 53.25,-464 50.25,-460 22.75,-460 22.75,-424 77.25,-424 77.25,-460"/>
<text text-anchor="middle" x="50" y="-438.3" font-family="Times,serif" font-size="14.00">fsq_dir</text>
</g>
<!-- fsq_dir&#45;&gt;v1 -->
<g id="edge4" class="edge"><title>fsq_dir&#45;&gt;v1</title>
<path fill="none" stroke="black" d="M50,-423.914C50,-408.588 50,-388.313 50,-387.061"/>
</g>
<!-- sv1 -->
<g id="node28" class="node"><title>sv1</title>
<ellipse fill="black" stroke="black" cx="50" cy="-274" rx="0" ry="0"/>
</g>
<!-- staging&#45;&gt;sv1 -->
<g id="edge26" class="edge"><title>staging&#45;&gt;sv1</title>
<path fill="none" stroke="black" d="M50,-311.914C50,-296.588 50,-276.313 50,-275.061"/>
</g>
<!-- tv1 -->
<g id="node10" class="node"><title>tv1</title>
<ellipse fill="black" stroke="black" cx="146" cy="-274" rx="0" ry="0"/>
</g>
<!-- topics&#45;&gt;tv1 -->
<g id="edge11" class="edge"><title>topics&#45;&gt;tv1</title>
<path fill="none" stroke="black" d="M146,-311.914C146,-296.588 146,-276.313 146,-275.061"/>
</g>
<!-- mv1 -->
<g id="node17" class="node"><title>mv1</title>
<ellipse fill="black" stroke="black" cx="362" cy="-274" rx="0" ry="0"/>
</g>
<!-- messages&#45;&gt;mv1 -->
<g id="edge18" class="edge"><title>messages&#45;&gt;mv1</title>
<path fill="none" stroke="black" d="M362,-311.914C362,-296.588 362,-276.313 362,-275.061"/>
</g>
<!-- uv1 -->
<g id="node24" class="node"><title>uv1</title>
<ellipse fill="black" stroke="black" cx="632" cy="-274" rx="0" ry="0"/>
</g>
<!-- update&#45;&gt;uv1 -->
<g id="edge23" class="edge"><title>update&#45;&gt;uv1</title>
<path fill="none" stroke="black" d="M632,-311.914C632,-296.588 632,-276.313 632,-275.061"/>
</g>
<!-- tv2 -->
<g id="node11" class="node"><title>tv2</title>
<ellipse fill="black" stroke="black" cx="218" cy="-274" rx="0" ry="0"/>
</g>
<!-- tv1&#45;&gt;tv2 -->
<g id="edge9" class="edge"><title>tv1&#45;&gt;tv2</title>
<path fill="none" stroke="black" d="M146.281,-274C170.094,-274 193.907,-274 217.72,-274"/>
</g>
<!-- t00 -->
<g id="node13" class="node"><title>t00</title>
<polygon fill="none" stroke="black" points="173,-236 170,-240 149,-240 146,-236 119,-236 119,-200 173,-200 173,-236"/>
<text text-anchor="middle" x="146" y="-214.3" font-family="Times,serif" font-size="14.00">00</text>
</g>
<!-- tv1&#45;&gt;t00 -->
<g id="edge12" class="edge"><title>tv1&#45;&gt;t00</title>
<path fill="none" stroke="black" d="M146,-272.845C146,-270.903 146,-251.091 146,-236.058"/>
</g>
<!-- tv3 -->
<g id="node12" class="node"><title>tv3</title>
<ellipse fill="black" stroke="black" cx="290" cy="-274" rx="0" ry="0"/>
</g>
<!-- tv2&#45;&gt;tv3 -->
<g id="edge10" class="edge"><title>tv2&#45;&gt;tv3</title>
<path fill="none" stroke="black" d="M218.281,-274C242.094,-274 265.907,-274 289.72,-274"/>
</g>
<!-- t01 -->
<g id="node14" class="node"><title>t01</title>
<polygon fill="none" stroke="black" points="245,-236 242,-240 221,-240 218,-236 191,-236 191,-200 245,-200 245,-236"/>
<text text-anchor="middle" x="218" y="-214.3" font-family="Times,serif" font-size="14.00">01</text>
</g>
<!-- tv2&#45;&gt;t01 -->
<g id="edge13" class="edge"><title>tv2&#45;&gt;t01</title>
<path fill="none" stroke="black" d="M218,-272.845C218,-270.903 218,-251.091 218,-236.058"/>
</g>
<!-- t02 -->
<g id="node15" class="node"><title>t02</title>
<polygon fill="none" stroke="black" points="317,-236 314,-240 293,-240 290,-236 263,-236 263,-200 317,-200 317,-236"/>
<text text-anchor="middle" x="290" y="-214.3" font-family="Times,serif" font-size="14.00">..</text>
</g>
<!-- tv3&#45;&gt;t02 -->
<g id="edge14" class="edge"><title>tv3&#45;&gt;t02</title>
<path fill="none" stroke="black" d="M290,-272.845C290,-270.903 290,-251.091 290,-236.058"/>
</g>
<!-- tf -->
<g id="node16" class="node"><title>tf</title>
<polygon fill="none" stroke="dimgrey" points="244.25,-162 185.75,-162 185.75,-126 250.25,-126 250.25,-156 244.25,-162"/>
<polyline fill="none" stroke="dimgrey" points="244.25,-162 244.25,-156 "/>
<polyline fill="none" stroke="dimgrey" points="250.25,-156 244.25,-156 "/>
<text text-anchor="middle" x="218" y="-140.3" font-family="Times,serif" font-size="14.00" fill="dimgrey">topic file</text>
</g>
<!-- t01&#45;&gt;tf -->
<g id="edge15" class="edge"><title>t01&#45;&gt;tf</title>
<path fill="none" stroke="black" d="M218,-199.937C218,-188.626 218,-173.828 218,-162.441"/>
</g>
<!-- qv2 -->
<g id="node31" class="node"><title>qv2</title>
<ellipse fill="black" stroke="black" cx="218" cy="-74" rx="0" ry="0"/>
</g>
<!-- tf&#45;&gt;qv2 -->
<g id="edge33" class="edge"><title>tf&#45;&gt;qv2</title>
<path fill="none" stroke="dimgrey" d="M218,-115.602C218,-97.416 218,-76.6097 218,-75.0887"/>
<polygon fill="dimgrey" stroke="dimgrey" points="214.5,-115.841 218,-125.841 221.5,-115.841 214.5,-115.841"/>
<text text-anchor="middle" x="298" y="-96.3" font-family="Times,serif" font-size="14.00" fill="dimgrey">2. Optional: Write long topic</text>
</g>
<!-- mv2 -->
<g id="node18" class="node"><title>mv2</title>
<ellipse fill="black" stroke="black" cx="434" cy="-274" rx="0" ry="0"/>
</g>
<!-- mv1&#45;&gt;mv2 -->
<g id="edge16" class="edge"><title>mv1&#45;&gt;mv2</title>
<path fill="none" stroke="black" d="M362.281,-274C386.094,-274 409.907,-274 433.72,-274"/>
</g>
<!-- m00 -->
<g id="node20" class="node"><title>m00</title>
<polygon fill="none" stroke="black" points="389,-236 386,-240 365,-240 362,-236 335,-236 335,-200 389,-200 389,-236"/>
<text text-anchor="middle" x="362" y="-214.3" font-family="Times,serif" font-size="14.00">00</text>
</g>
<!-- mv1&#45;&gt;m00 -->
<g id="edge19" class="edge"><title>mv1&#45;&gt;m00</title>
<path fill="none" stroke="black" d="M362,-272.845C362,-270.903 362,-251.091 362,-236.058"/>
</g>
<!-- mv3 -->
<g id="node19" class="node"><title>mv3</title>
<ellipse fill="black" stroke="black" cx="529" cy="-274" rx="0" ry="0"/>
</g>
<!-- mv2&#45;&gt;mv3 -->
<g id="edge17" class="edge"><title>mv2&#45;&gt;mv3</title>
<path fill="none" stroke="black" d="M434.371,-274C465.791,-274 497.211,-274 528.63,-274"/>
</g>
<!-- m01 -->
<g id="node21" class="node"><title>m01</title>
<polygon fill="none" stroke="black" points="461,-236 458,-240 437,-240 434,-236 407,-236 407,-200 461,-200 461,-236"/>
<text text-anchor="middle" x="434" y="-214.3" font-family="Times,serif" font-size="14.00">01</text>
</g>
<!-- mv2&#45;&gt;m01 -->
<g id="edge20" class="edge"><title>mv2&#45;&gt;m01</title>
<path fill="none" stroke="black" d="M434,-272.845C434,-270.903 434,-251.091 434,-236.058"/>
</g>
<!-- m02 -->
<g id="node22" class="node"><title>m02</title>
<polygon fill="none" stroke="black" points="556,-236 553,-240 532,-240 529,-236 502,-236 502,-200 556,-200 556,-236"/>
<text text-anchor="middle" x="529" y="-214.3" font-family="Times,serif" font-size="14.00">..</text>
</g>
<!-- mv3&#45;&gt;m02 -->
<g id="edge21" class="edge"><title>mv3&#45;&gt;m02</title>
<path fill="none" stroke="black" d="M529,-272.845C529,-270.903 529,-251.091 529,-236.058"/>
</g>
<!-- mf -->
<g id="node23" class="node"><title>mf</title>
<polygon fill="none" stroke="black" points="459.25,-162 402.75,-162 402.75,-126 465.25,-126 465.25,-156 459.25,-162"/>
<polyline fill="none" stroke="black" points="459.25,-162 459.25,-156 "/>
<polyline fill="none" stroke="black" points="465.25,-156 459.25,-156 "/>
<text text-anchor="middle" x="434" y="-140.3" font-family="Times,serif" font-size="14.00">message</text>
</g>
<!-- m01&#45;&gt;mf -->
<g id="edge22" class="edge"><title>m01&#45;&gt;mf</title>
<path fill="none" stroke="black" d="M434,-199.937C434,-188.626 434,-173.828 434,-162.441"/>
</g>
<!-- qv3 -->
<g id="node32" class="node"><title>qv3</title>
<ellipse fill="black" stroke="black" cx="434" cy="-74" rx="0" ry="0"/>
</g>
<!-- mf&#45;&gt;qv3 -->
<g id="edge34" class="edge"><title>mf&#45;&gt;qv3</title>
<path fill="none" stroke="black" d="M434,-115.602C434,-97.416 434,-76.6097 434,-75.0887"/>
<polygon fill="black" stroke="black" points="430.5,-115.841 434,-125.841 437.5,-115.841 430.5,-115.841"/>
<text text-anchor="middle" x="521.5" y="-96.3" font-family="Times,serif" font-size="14.00">3. Move from staging to bucket</text>
</g>
<!-- UPDATE -->
<g id="node26" class="node"><title>UPDATE</title>
<polygon fill="none" stroke="black" points="661,-236 597,-236 597,-200 667,-200 667,-230 661,-236"/>
<polyline fill="none" stroke="black" points="661,-236 661,-230 "/>
<polyline fill="none" stroke="black" points="667,-230 661,-230 "/>
<text text-anchor="middle" x="632" y="-214.3" font-family="Times,serif" font-size="14.00">UPDATE</text>
</g>
<!-- uv1&#45;&gt;UPDATE -->
<g id="edge24" class="edge"><title>uv1&#45;&gt;UPDATE</title>
<path fill="none" stroke="black" d="M632,-272.845C632,-270.903 632,-251.091 632,-236.058"/>
</g>
<!-- uv2 -->
<g id="node25" class="node"><title>uv2</title>
<ellipse fill="black" stroke="black" cx="632" cy="-144" rx="0" ry="0"/>
</g>
<!-- qv4 -->
<g id="node33" class="node"><title>qv4</title>
<ellipse fill="black" stroke="black" cx="632" cy="-74" rx="0" ry="0"/>
</g>
<!-- uv2&#45;&gt;qv4 -->
<g id="edge35" class="edge"><title>uv2&#45;&gt;qv4</title>
<path fill="none" stroke="black" d="M632,-142.951C632,-140.924 632,-77.0435 632,-75.0478"/>
<text text-anchor="middle" x="701.5" y="-96.3" font-family="Times,serif" font-size="14.00">4. Write to UPDATE file</text>
</g>
<!-- UPDATE&#45;&gt;uv2 -->
<g id="edge25" class="edge"><title>UPDATE&#45;&gt;uv2</title>
<path fill="none" stroke="black" d="M632,-189.851C632,-170.195 632,-146.787 632,-145.097"/>
<polygon fill="black" stroke="black" points="628.5,-189.937 632,-199.937 635.5,-189.937 628.5,-189.937"/>
</g>
<!-- smsg -->
<g id="node27" class="node"><title>smsg</title>
<polygon fill="none" stroke="black" stroke-dasharray="5,2" points="94.25,-236 -0.25,-236 -0.25,-200 100.25,-200 100.25,-230 94.25,-236"/>
<polyline fill="none" stroke="black" stroke-dasharray="5,2" points="94.25,-236 94.25,-230 "/>
<polyline fill="none" stroke="black" stroke-dasharray="5,2" points="100.25,-230 94.25,-230 "/>
<text text-anchor="middle" x="50" y="-214.3" font-family="Times,serif" font-size="14.00">staged message</text>
</g>
<!-- sv2 -->
<g id="node29" class="node"><title>sv2</title>
<ellipse fill="black" stroke="black" cx="50" cy="-144" rx="0" ry="0"/>
</g>
<!-- smsg&#45;&gt;sv2 -->
<g id="edge28" class="edge"><title>smsg&#45;&gt;sv2</title>
<path fill="none" stroke="black" stroke-dasharray="5,2" d="M50,-189.851C50,-170.195 50,-146.787 50,-145.097"/>
<polygon fill="black" stroke="black" points="46.5001,-189.937 50,-199.937 53.5001,-189.937 46.5001,-189.937"/>
</g>
<!-- sv1&#45;&gt;smsg -->
<g id="edge27" class="edge"><title>sv1&#45;&gt;smsg</title>
<path fill="none" stroke="black" d="M50,-272.845C50,-270.903 50,-251.091 50,-236.058"/>
</g>
<!-- qv1 -->
<g id="node30" class="node"><title>qv1</title>
<ellipse fill="black" stroke="black" cx="50" cy="-74" rx="0" ry="0"/>
</g>
<!-- sv2&#45;&gt;qv1 -->
<g id="edge32" class="edge"><title>sv2&#45;&gt;qv1</title>
<path fill="none" stroke="black" stroke-dasharray="5,2" d="M50,-142.951C50,-140.924 50,-77.0435 50,-75.0478"/>
<text text-anchor="middle" x="115" y="-96.3" font-family="Times,serif" font-size="14.00">1. Write to staging area</text>
</g>
<!-- qv1&#45;&gt;qv2 -->
<g id="edge29" class="edge"><title>qv1&#45;&gt;qv2</title>
<path fill="none" stroke="black" d="M50.3281,-74C106.11,-74 161.891,-74 217.673,-74"/>
</g>
<!-- qlobber&#45;fsq -->
<g id="node34" class="node"><title>qlobber&#45;fsq</title>
<polygon fill="none" stroke="black" points="89.25,-36 10.75,-36 10.75,-0 89.25,-0 89.25,-36"/>
<text text-anchor="middle" x="50" y="-14.3" font-family="Times,serif" font-size="14.00">qlobber&#45;fsq</text>
</g>
<!-- qv1&#45;&gt;qlobber&#45;fsq -->
<g id="edge36" class="edge"><title>qv1&#45;&gt;qlobber&#45;fsq</title>
<path fill="none" stroke="black" d="M50,-72.8451C50,-70.9026 50,-51.0908 50,-36.0581"/>
</g>
<!-- qv2&#45;&gt;qv3 -->
<g id="edge30" class="edge"><title>qv2&#45;&gt;qv3</title>
<path fill="none" stroke="black" d="M218.422,-74C290.141,-74 361.86,-74 433.579,-74"/>
</g>
<!-- qv3&#45;&gt;qv4 -->
<g id="edge31" class="edge"><title>qv3&#45;&gt;qv4</title>
<path fill="none" stroke="black" d="M434.387,-74C500.129,-74 565.872,-74 631.614,-74"/>
</g>
</g>
</svg>
